# xmcd
#
# Track frame offsets:
#	150
#	15023
#	30766
#	48080
#	68687
#	84532
#	99611
#	117428
#	131995
#	149795
#	165812
#	184615
#	200403
#
# Disc length: 2937 seconds
#
# Revision: 1
# Processed by: cddbd v1.5.1PL0 Copyright (c) Steve Scherf et al.
# Submitted via: EasyCDDAExtractor 6.5.0.1
#
DISCID=a00b770d
DTITLE=Jo Dee Messina - Delicious Surprise
DYEAR=2005
DGENRE=Country
TTITLE0=Not Going Down
TTITLE1=Someone Else's Life
TTITLE2=I Believe It (Delicious Surprise)
TTITLE3=It Gets Better
TTITLE4=Who's Crying Now
TTITLE5=My Give A Damn Is Busted
TTITLE6=It's Too Late To Worry
TTITLE7=Life Is Good
TTITLE8=Love Is Not Enough
TTITLE9=Where Were You
TTITLE10=I Wear My Life
TTITLE11=You Were Just Here
TTITLE12=If Heaven Was Needing A Hero
EXTD=
EXTT0=
EXTT1=
EXTT2=
EXTT3=
EXTT4=
EXTT5=
EXTT6=
EXTT7=
EXTT8=
EXTT9=
EXTT10=
EXTT11=
EXTT12=
PLAYORDER=
